<svg width="300" height="113" viewBox="0 0 300 113" fill="none" xmlns="http://www.w3.org/2000/svg">
<g filter="url(#filter0_d)">
<path d="M65.5266 101.011C65.5266 102.676 64.1699 104.025 62.5048 103.986C43.77 103.542 25.0369 100.2 6.33913 92.188C4.55053 91.4217 4.01193 89.1654 5.20923 87.6315C9.66536 81.9225 14.1257 75.9291 18.6137 69.7033C19.2567 68.8113 19.3571 67.6389 18.8794 66.6486C14.6605 57.9044 10.4404 48.9526 6.19912 39.7492C5.03612 37.2256 7.66914 34.5652 10.2549 35.5825C27.6992 42.4457 45.1396 45.3669 62.5491 45.7771C64.1969 45.8159 65.5266 47.1528 65.5266 48.801C65.5266 66.2042 65.5266 83.6074 65.5266 101.011Z" fill="#C9981A"/>
<path d="M65.5225 104.033C54.4855 97.6168 43.495 90.2251 32.458 81.4988C43.4485 83.86 54.4855 84.938 65.5225 84.9894C65.5225 91.3544 65.5225 97.7195 65.5225 104.033Z" fill="#8C6212"/>
<path d="M266.672 77.2887C287.582 77.4427 308.491 81.0873 329.355 90.6862C323.766 78.4694 318.178 66.7144 312.543 55.3188C318.131 47.3111 323.72 39.6628 329.355 32.4251C308.445 22.8261 287.535 19.1816 266.672 19.0276C266.672 38.4822 266.672 57.8855 266.672 77.2887Z" fill="#C9981A"/>
<path d="M266.668 77.2879C277.705 71.0254 276.251 61.818 276.251 61.818C265.261 59.4568 266.668 58.2439 266.668 58.2439C266.668 64.609 266.668 70.9228 266.668 77.2879Z" fill="#8C6212"/>
<path d="M276.438 61.7868C195.081 44.1288 113.724 99.1561 32.3666 81.4981C32.3666 62.0948 32.3666 42.6915 32.3666 23.2369C113.724 40.8949 195.081 -14.081 276.438 3.52565C276.438 22.9289 276.438 42.3322 276.438 61.7868Z" fill="#FFC75A"/>
</g>
<defs>
<filter id="filter0_d" x="0.568329" y="-7.62939e-06" width="332.786" height="112.033" filterUnits="userSpaceOnUse" color-interpolation-filters="sRGB">
<feFlood flood-opacity="0" result="BackgroundImageFix"/>
<feColorMatrix in="SourceAlpha" type="matrix" values="0 0 0 0 0 0 0 0 0 0 0 0 0 0 0 0 0 0 127 0" result="hardAlpha"/>
<feOffset dy="4"/>
<feGaussianBlur stdDeviation="2"/>
<feColorMatrix type="matrix" values="0 0 0 0 0 0 0 0 0 0 0 0 0 0 0 0 0 0 0.2 0"/>
<feBlend mode="normal" in2="BackgroundImageFix" result="effect1_dropShadow"/>
<feBlend mode="normal" in="SourceGraphic" in2="effect1_dropShadow" result="shape"/>
</filter>
</defs>
</svg>
